<?xml version="1.0" encoding="utf-8"?>
<!-- Generator: Adobe Illustrator 21.0.2, SVG Export Plug-In . SVG Version: 6.00 Build 0)  -->
<svg version="1.1" xmlns="http://www.w3.org/2000/svg" xmlns:xlink="http://www.w3.org/1999/xlink" x="0px" y="0px"
	 viewBox="0 0 771.4 305" enable-background="new 0 0 771.4 305" xml:space="preserve" id="full-logo" >
<g id="Layer_1" display="none">
	<g display="inline">
		<circle fill="none" stroke="#DCDCDC" stroke-miterlimit="10" cx="85.6" cy="153.1" r="19.2"/>
		<circle fill="none" stroke="#DCDCDC" stroke-miterlimit="10" cx="85.6" cy="153.1" r="52.2"/>
		
			<rect x="84.7" y="30.5" transform="matrix(0.9397 -0.342 0.342 0.9397 -25.3633 40.1811)" fill="none" stroke="#DCDCDC" stroke-miterlimit="10" width="33.1" height="123.1"/>
		
			<rect x="51.9" y="39.1" transform="matrix(-0.9397 -0.342 0.342 -0.9397 99.9075 210.0553)" fill="none" stroke="#DCDCDC" stroke-miterlimit="10" width="33.1" height="114.2"/>
	</g>
	<circle display="inline" fill="none" stroke="#DCDCDC" stroke-miterlimit="10" cx="261.5" cy="170.1" r="19.2"/>
	<circle display="inline" fill="none" stroke="#DCDCDC" stroke-miterlimit="10" cx="261.5" cy="170.1" r="52.2"/>
	
		<rect x="264.3" y="75" transform="matrix(0.8876 -0.4606 0.4606 0.8876 -28.5461 144.0374)" display="inline" fill="none" stroke="#DCDCDC" stroke-miterlimit="10" width="33.1" height="111.1"/>
	
		<rect x="222.6" y="73.3" transform="matrix(-0.8876 -0.4606 0.4606 -0.8876 389.1957 364.7907)" display="inline" fill="none" stroke="#DCDCDC" stroke-miterlimit="10" width="33.1" height="123.1"/>
	<rect x="252.9" y="35.7" display="inline" fill="none" stroke="#DCDCDC" stroke-miterlimit="10" width="17.2" height="123"/>
</g>
<g id="Layer_2">
	<linearGradient id="SVGID_1_" gradientUnits="userSpaceOnUse" x1="173.8446" y1="94.0654" x2="149.5341" y2="243.3278">
		<stop  offset="0" style="stop-color:#009FE3"/>
		<stop  offset="1" style="stop-color:#073542"/>
	</linearGradient>
	<path fill="url(#SVGID_1_)" d="M124.1,2c0,0,98.8,110.9,98.8,178.9s-49.9,116.9-113.1,116.9c0,0,59.7-67.2,59.7-116.9
		S124.1,53.3,124.1,53.3L123.9,2"/>
	<path fill="none" stroke="#000000" stroke-miterlimit="10" d="M424.7,214.1"/>
	<linearGradient id="SVGID_2_" gradientUnits="userSpaceOnUse" x1="184.9617" y1="239.3674" x2="70.1828" y2="239.559">
		<stop  offset="0" style="stop-color:#0090D7"/>
		<stop  offset="1" style="stop-color:#073542"/>
	</linearGradient>
	<path fill="url(#SVGID_2_)" d="M11.8,184.5c0,0,17.1,59.3,101.8,59.3s109.3-62.8,109.3-62.8s2.3,47.5-30.9,82
		c-30.6,31.8-64,35-82.2,35S14.5,213.3,11.8,184.5z"/>
	<linearGradient id="SVGID_3_" gradientUnits="userSpaceOnUse" x1="122.2808" y1="294.4886" x2="54.5529" y2="104.9591">
		<stop  offset="0" style="stop-color:#333332"/>
		<stop  offset="0.4704" style="stop-color:#3D3C3C"/>
		<stop  offset="1" style="stop-color:#4D4D4C"/>
	</linearGradient>
	<path fill="url(#SVGID_3_)" d="M103.1,2c0,0-98.8,110.9-98.8,178.9s49.9,116.9,113.1,116.9c0,0-59.7-67.2-59.7-116.9
		s45.4-127.7,45.4-127.7L103.2,2"/>
	<g>
		<path fill="#3C3C3B" d="M263.1,109V44.8h30c14,0,21.6,9.4,21.6,20.7c0,11.2-7.7,20.6-21.6,20.6h-16.4V109H263.1z M300.7,65.5
			c0-5.4-4.1-8.7-9.5-8.7h-14.4v17.2h14.4C296.6,74.1,300.7,70.8,300.7,65.5z"/>
		<path fill="#3C3C3B" d="M323.9,109V62.5h12.2v6.3c3.4-4,9-7.4,14.8-7.4v11.9c-0.9-0.2-1.9-0.3-3.4-0.3c-4,0-9.4,2.3-11.5,5.3V109
			H323.9z"/>
		<path fill="#3C3C3B" d="M356.5,85.7c0-13.5,10-24.4,24.1-24.4c14,0,23.3,10.4,23.3,25.5v2.9h-34.6c0.9,5.7,5.5,10.4,13.4,10.4
			c3.9,0,9.3-1.6,12.3-4.5l5.5,8.1c-4.6,4.2-11.9,6.5-19.2,6.5C367.2,110.2,356.5,100.7,356.5,85.7z M380.6,71.4
			c-7.6,0-10.9,5.3-11.4,9.9h22.9C391.8,76.9,388.7,71.4,380.6,71.4z"/>
		<path fill="#3C3C3B" d="M409.7,103l5.3-8.9c3.5,3.3,10.3,6.4,16.1,6.4c5.3,0,7.8-2,7.8-4.9c0-7.6-27.5-1.3-27.5-19.6
			c0-7.8,6.7-14.6,19.1-14.6c7.8,0,14.1,2.7,18.7,6.4l-4.9,8.7c-2.8-2.9-8.1-5.4-13.8-5.4c-4.4,0-7.3,1.9-7.3,4.5
			c0,6.8,27.6,1.1,27.6,19.8c0,8.6-7.3,14.8-20.2,14.8C422.4,110.2,414.6,107.5,409.7,103z"/>
		<path fill="#3C3C3B" d="M460.6,109V44.8h12.2V109H460.6z"/>
		<path fill="#3C3C3B" d="M513.8,109v-4.9c-3.2,3.9-8.7,6.1-14.7,6.1c-7.4,0-16.1-5-16.1-15.4c0-11,8.7-15,16.1-15
			c6.3,0,11.6,2,14.7,5.7v-5.9c0-4.7-4-7.8-10.2-7.8c-4.9,0-9.5,1.9-13.4,5.5l-4.8-8.6c5.7-5.1,13-7.3,20.3-7.3
			c10.7,0,20.4,4.2,20.4,17.6v30H513.8z M513.8,97.9v-5.8c-2-2.7-5.9-4.1-9.8-4.1c-4.8,0-8.8,2.6-8.8,7s3.9,6.9,8.8,6.9
			C508,101.9,511.8,100.6,513.8,97.9z"/>
		<path fill="#3C3C3B" d="M570.5,109V80.9c0-6.4-3.4-8.7-8.6-8.7c-4.8,0-8.5,2.7-10.6,5.4V109h-12.2V62.5h12.2v6
			c3-3.5,8.8-7.1,16.3-7.1c10.3,0,15.2,5.8,15.2,14.8V109H570.5z"/>
		<path fill="#3C3C3B" d="M627.8,109v-6c-3.7,4.6-8.7,7.1-14.3,7.1c-11.6,0-20.6-8.9-20.6-24.5c0-15.1,8.8-24.4,20.6-24.4
			c5.5,0,10.7,2.3,14.3,7.1V44.8h12.3V109H627.8z M627.8,94V77.6c-2-3.1-6.4-5.3-10.5-5.3c-7,0-11.8,5.5-11.8,13.5
			c0,8.1,4.8,13.6,11.8,13.6C621.4,99.3,625.8,97.1,627.8,94z"/>
		<path fill="#0085B9" d="M288.4,181.9v-17.1h-19.1v17.1h-8.6v-40.5h8.6v15.9h19.1v-15.9h8.7v40.5H288.4z"/>
		<path fill="#0085B9" d="M301.5,167.2c0-8.5,6.3-15.4,15.2-15.4c8.8,0,14.7,6.6,14.7,16.1v1.8h-21.8c0.5,3.6,3.5,6.6,8.4,6.6
			c2.5,0,5.9-1,7.8-2.9l3.5,5.1c-2.9,2.7-7.5,4.1-12.1,4.1C308.2,182.6,301.5,176.6,301.5,167.2z M316.7,158.1
			c-4.8,0-6.9,3.3-7.2,6.2H324C323.7,161.6,321.8,158.1,316.7,158.1z"/>
		<path fill="#0085B9" d="M353,181.9v-3.1c-2,2.4-5.5,3.8-9.3,3.8c-4.7,0-10.1-3.2-10.1-9.7c0-6.9,5.5-9.5,10.1-9.5
			c3.9,0,7.3,1.3,9.3,3.6v-3.7c0-3-2.5-4.9-6.4-4.9c-3.1,0-6,1.2-8.4,3.5l-3-5.4c3.6-3.2,8.2-4.6,12.8-4.6c6.7,0,12.9,2.7,12.9,11.1
			v18.9H353z M353,174.8v-3.6c-1.3-1.7-3.7-2.6-6.2-2.6c-3,0-5.5,1.6-5.5,4.4c0,2.8,2.5,4.4,5.5,4.4
			C349.3,177.4,351.7,176.5,353,174.8z"/>
		<path fill="#0085B9" d="M368.4,174.5v-15.2h-4.9v-6.7h4.9v-8h7.7v8h5.9v6.7h-5.9v13.2c0,1.9,1,3.3,2.7,3.3c1.2,0,2.2-0.4,2.7-0.9
			l1.6,5.9c-1.2,1-3.2,1.9-6.4,1.9C371.3,182.6,368.4,179.8,368.4,174.5z"/>
		<path fill="#0085B9" d="M385.1,144.8c0-2.5,2.1-4.6,4.6-4.6c2.5,0,4.6,2,4.6,4.6s-2.1,4.6-4.6,4.6
			C387.2,149.4,385.1,147.3,385.1,144.8z M385.9,181.9v-29.3h7.7v29.3H385.9z"/>
		<path fill="#0085B9" d="M419.5,181.9v-17.7c0-4.1-2.1-5.5-5.4-5.5c-3,0-5.3,1.7-6.7,3.4v19.8h-7.7v-29.3h7.7v3.8
			c1.9-2.2,5.5-4.5,10.3-4.5c6.5,0,9.6,3.6,9.6,9.3v20.7H419.5z"/>
		<path fill="#0085B9" d="M432.7,189.4l3.5-5.5c2.4,2.5,5.5,3.6,9.2,3.6c3.7,0,8.1-1.6,8.1-7.5v-2.9c-2.3,2.9-5.5,4.6-9.1,4.6
			c-7.3,0-12.9-5.1-12.9-14.9c0-9.6,5.5-14.9,12.9-14.9c3.5,0,6.7,1.5,9.1,4.5v-3.8h7.7v27.4c0,11.1-8.6,13.8-15.8,13.8
			C440.4,193.8,436.4,192.6,432.7,189.4z M453.5,171.5V162c-1.3-1.9-4.1-3.3-6.6-3.3c-4.4,0-7.5,3-7.5,8.1s3,8.1,7.5,8.1
			C449.3,174.8,452.1,173.4,453.5,171.5z"/>
		<path fill="#0085B9" d="M503.9,181.9c-1.2-1-2.8-2.6-4.4-4.2c-3,3-6.7,5-11.7,5c-6.9,0-12.6-3.8-12.6-11.3c0-6.3,4.2-9.5,8.9-12.1
			c-1.8-3.1-3.1-6.3-3.1-9.1c0-5.3,4.4-9.3,10.2-9.3c5.2,0,9.1,2.9,9.1,7.9c0,6.1-5.2,8.7-10.3,11.4c1.6,2.2,3.4,4.2,4.7,5.8
			c1.6,1.9,3.2,3.7,4.8,5.4c2.2-3.3,3.6-7,4.4-9.3l3.9,1.8c-1.3,3.2-3.1,7-5.5,10.4c2.4,2.5,4.9,4.9,7.9,7.6H503.9z M496.7,174.8
			c-2.3-2.4-4.4-4.7-5.6-6.1c-1.7-1.9-3.5-4.1-5-6.4c-3.4,2.1-6,4.6-6,8.7c0,5,3.9,7.8,8.2,7.8C491.6,178.8,494.4,177.2,496.7,174.8
			z M488.2,157.2c4.3-2.1,8-4.2,8-8.3c0-3-2.1-4.6-4.8-4.6c-3.1,0-5.6,2.4-5.6,5.9C485.8,152.4,486.8,154.9,488.2,157.2z"/>
		<path fill="#0085B9" d="M520.8,181.9v-40.5h18.9c8.8,0,13.6,5.9,13.6,13c0,7-4.9,13-13.6,13h-10.3v14.4H520.8z M544.5,154.4
			c0-3.4-2.6-5.5-6-5.5h-9.1v10.9h9.1C541.9,159.8,544.5,157.8,544.5,154.4z"/>
		<path fill="#0085B9" d="M557,181.9v-40.5h7.7v40.5H557z"/>
		<path fill="#0085B9" d="M590.6,181.9v-3.7c-2,2.2-5.5,4.4-10.3,4.4c-6.4,0-9.5-3.5-9.5-9.2v-20.8h7.7v17.8c0,4.1,2.1,5.4,5.4,5.4
			c3,0,5.3-1.6,6.7-3.3v-19.8h7.7v29.3H590.6z"/>
		<path fill="#0085B9" d="M640.8,181.9v-18.5c0-2.7-1.2-4.7-4.4-4.7c-2.7,0-5,1.8-6.1,3.4v19.8h-7.8v-18.5c0-2.7-1.2-4.7-4.4-4.7
			c-2.7,0-4.9,1.8-6.1,3.4v19.8h-7.7v-29.3h7.7v3.8c1.3-1.7,5.1-4.5,9.6-4.5c4.3,0,7.1,2,8.1,5.3c1.7-2.6,5.6-5.3,10.1-5.3
			c5.4,0,8.6,2.9,8.6,8.9v21.2H640.8z"/>
		<path fill="#0085B9" d="M654.7,181.9v-40.5h7.7v14.9c2.3-3,5.6-4.5,9-4.5c7.5,0,13,5.8,13,15.4c0,9.8-5.6,15.4-13,15.4
			c-3.5,0-6.7-1.6-9-4.5v3.8H654.7z M669.1,175.7c4.4,0,7.4-3.5,7.4-8.6c0-5-3-8.5-7.4-8.5c-2.5,0-5.3,1.5-6.7,3.4v10.4
			C663.8,174.3,666.6,175.7,669.1,175.7z"/>
		<path fill="#0085B9" d="M688,144.8c0-2.5,2.1-4.6,4.6-4.6c2.5,0,4.6,2,4.6,4.6s-2.1,4.6-4.6,4.6C690.1,149.4,688,147.3,688,144.8z
			 M688.8,181.9v-29.3h7.7v29.3H688.8z"/>
		<path fill="#0085B9" d="M722.4,181.9v-17.7c0-4.1-2.1-5.5-5.4-5.5c-3,0-5.3,1.7-6.7,3.4v19.8h-7.7v-29.3h7.7v3.8
			c1.9-2.2,5.5-4.5,10.3-4.5c6.5,0,9.6,3.6,9.6,9.3v20.7H722.4z"/>
		<path fill="#0085B9" d="M735.6,189.4l3.5-5.5c2.4,2.5,5.5,3.6,9.2,3.6c3.7,0,8.1-1.6,8.1-7.5v-2.9c-2.3,2.9-5.5,4.6-9.1,4.6
			c-7.3,0-12.9-5.1-12.9-14.9c0-9.6,5.5-14.9,12.9-14.9c3.5,0,6.7,1.5,9.1,4.5v-3.8h7.7v27.4c0,11.1-8.6,13.8-15.8,13.8
			C743.3,193.8,739.3,192.6,735.6,189.4z M756.4,171.5V162c-1.3-1.9-4.1-3.3-6.6-3.3c-4.4,0-7.5,3-7.5,8.1s3,8.1,7.5,8.1
			C752.2,174.8,755,173.4,756.4,171.5z"/>
		<path fill="#0085B9" d="M257.9,249l4.7-6.7c2.9,3,7.3,5.5,12.9,5.5c4.8,0,7-2.1,7-4.5c0-7-23.3-2.1-23.3-17.4
			c0-6.7,5.8-12.3,15.4-12.3c6.4,0,11.8,1.9,15.8,5.6l-4.8,6.4c-3.3-3-7.6-4.4-11.8-4.4c-3.6,0-5.7,1.6-5.7,4
			c0,6.4,23.2,2.1,23.2,17.2c0,7.4-5.3,13-16.2,13C267.3,255.4,261.7,252.8,257.9,249z"/>
		<path fill="#0085B9" d="M293.5,240c0-8.5,6.3-15.4,15.2-15.4c8.8,0,14.7,6.6,14.7,16.1v1.8h-21.8c0.5,3.6,3.5,6.6,8.4,6.6
			c2.5,0,5.9-1,7.8-2.9l3.5,5.1c-2.9,2.7-7.5,4.1-12.1,4.1C300.3,255.4,293.5,249.4,293.5,240z M308.7,231c-4.8,0-6.9,3.3-7.2,6.3
			H316C315.8,234.4,313.8,231,308.7,231z"/>
		<path fill="#0085B9" d="M327.5,254.7v-29.3h7.7v3.9c2.1-2.5,5.7-4.7,9.3-4.7v7.5c-0.5-0.1-1.2-0.2-2.1-0.2c-2.5,0-5.9,1.5-7.2,3.3
			v19.4H327.5z"/>
		<path fill="#0085B9" d="M355.4,254.7l-11.8-29.3h8.3l7.6,20.4l7.7-20.4h8.3l-11.8,29.3H355.4z"/>
		<path fill="#0085B9" d="M376.7,217.6c0-2.5,2.1-4.6,4.6-4.6c2.5,0,4.6,2,4.6,4.6s-2.1,4.6-4.6,4.6
			C378.8,222.2,376.7,220.2,376.7,217.6z M377.4,254.7v-29.3h7.7v29.3H377.4z"/>
		<path fill="#0085B9" d="M389.4,240c0-9,6.6-15.4,15.5-15.4c6,0,9.6,2.6,11.6,5.3l-5,4.7c-1.4-2.1-3.5-3.2-6.2-3.2
			c-4.7,0-7.9,3.4-7.9,8.5s3.3,8.6,7.9,8.6c2.7,0,4.8-1.2,6.2-3.2l5,4.7c-1.9,2.7-5.6,5.3-11.6,5.3
			C395.9,255.4,389.4,249.1,389.4,240z"/>
		<path fill="#0085B9" d="M418.1,240c0-8.5,6.3-15.4,15.2-15.4c8.8,0,14.7,6.6,14.7,16.1v1.8h-21.8c0.5,3.6,3.5,6.6,8.4,6.6
			c2.5,0,5.9-1,7.8-2.9l3.5,5.1c-2.9,2.7-7.5,4.1-12.1,4.1C424.9,255.4,418.1,249.4,418.1,240z M433.3,231c-4.8,0-6.9,3.3-7.2,6.3
			h14.4C440.4,234.4,438.4,231,433.3,231z"/>
		<path fill="#0085B9" d="M449.5,250.9l3.3-5.6c2.2,2.1,6.5,4.1,10.1,4.1c3.3,0,4.9-1.3,4.9-3.1c0-4.8-17.4-0.8-17.4-12.4
			c0-4.9,4.2-9.2,12-9.2c4.9,0,8.9,1.7,11.8,4l-3.1,5.5c-1.8-1.8-5.1-3.4-8.7-3.4c-2.8,0-4.6,1.2-4.6,2.9c0,4.3,17.4,0.7,17.4,12.5
			c0,5.4-4.6,9.3-12.7,9.3C457.5,255.4,452.6,253.7,449.5,250.9z"/>
	</g>
</g>
</svg>
