<?xml version="1.0" encoding="utf-8"?>
<!-- Generator: Adobe Illustrator 21.0.2, SVG Export Plug-In . SVG Version: 6.00 Build 0)  -->
<svg version="1.1" xmlns="http://www.w3.org/2000/svg" xmlns:xlink="http://www.w3.org/1999/xlink" x="0px" y="0px"
	 viewBox="0 0 109 145" enable-background="new 0 0 109 145" xml:space="preserve" id="app-head__logo" >
<g id="Layer_1" display="none">
	<g display="inline">
		<circle fill="none" stroke="#DCDCDC" stroke-miterlimit="10" cx="85.6" cy="153.1" r="19.2"/>
		<circle fill="none" stroke="#DCDCDC" stroke-miterlimit="10" cx="85.6" cy="153.1" r="52.2"/>
		
			<rect x="84.7" y="30.5" transform="matrix(0.9397 -0.342 0.342 0.9397 -25.3633 40.1811)" fill="none" stroke="#DCDCDC" stroke-miterlimit="10" width="33.1" height="123.1"/>
		
			<rect x="51.9" y="39.1" transform="matrix(-0.9397 -0.342 0.342 -0.9397 99.9075 210.0553)" fill="none" stroke="#DCDCDC" stroke-miterlimit="10" width="33.1" height="114.2"/>
	</g>
	<circle display="inline" fill="none" stroke="#DCDCDC" stroke-miterlimit="10" cx="261.5" cy="170.1" r="19.2"/>
	<circle display="inline" fill="none" stroke="#DCDCDC" stroke-miterlimit="10" cx="261.5" cy="170.1" r="52.2"/>
	
		<rect x="264.3" y="75" transform="matrix(0.8876 -0.4606 0.4606 0.8876 -28.5461 144.0374)" display="inline" fill="none" stroke="#DCDCDC" stroke-miterlimit="10" width="33.1" height="111.1"/>
	
		<rect x="222.6" y="73.3" transform="matrix(-0.8876 -0.4606 0.4606 -0.8876 389.1957 364.7907)" display="inline" fill="none" stroke="#DCDCDC" stroke-miterlimit="10" width="33.1" height="123.1"/>
	<rect x="252.9" y="35.7" display="inline" fill="none" stroke="#DCDCDC" stroke-miterlimit="10" width="17.2" height="123"/>
</g>
<g id="Layer_2">
	<linearGradient id="SVGID_1_" gradientUnits="userSpaceOnUse" x1="83.0121" y1="44.9913" x2="71.396" y2="116.313">
		<stop  offset="0" style="stop-color:#009FE3"/>
		<stop  offset="1" style="stop-color:#073542"/>
	</linearGradient>
	<path fill="url(#SVGID_1_)" d="M59.2,1c0,0,47.2,53,47.2,85.5s-23.9,55.9-54,55.9c0,0,28.5-32.1,28.5-55.9s-21.7-61-21.7-61V1"/>
	<linearGradient id="SVGID_2_" gradientUnits="userSpaceOnUse" x1="88.3242" y1="114.4206" x2="33.4797" y2="114.5121">
		<stop  offset="0" style="stop-color:#0090D7"/>
		<stop  offset="1" style="stop-color:#073542"/>
	</linearGradient>
	<path fill="url(#SVGID_2_)" d="M5.6,88.2c0,0,8.2,28.3,48.6,28.3s52.2-30,52.2-30s1.1,22.7-14.8,39.2
		c-14.6,15.2-30.6,16.7-39.3,16.7S6.9,102,5.6,88.2z"/>
	<linearGradient id="SVGID_3_" gradientUnits="userSpaceOnUse" x1="58.3736" y1="140.759" x2="26.0114" y2="50.1966">
		<stop  offset="0" style="stop-color:#333332"/>
		<stop  offset="0.4704" style="stop-color:#3D3C3C"/>
		<stop  offset="1" style="stop-color:#4D4D4C"/>
	</linearGradient>
	<path fill="url(#SVGID_3_)" d="M49.2,1C49.2,1,2,54,2,86.5s23.9,55.9,54,55.9c0,0-28.5-32.1-28.5-55.9s21.7-61,21.7-61V1"/>
</g>
</svg>
